# xmcd
#
# Track frame offsets:
#	150
#	15275
#	29615
#	57107
#	73147
#	91487
#	106502
#	127737
#	146012
#	164592
#	181980
#	203992
#	225340
#	242897
#	257775
#
# Disc length: 3663 seconds
#
# Revision: 1
# Processed by: cddbd v1.5.2PL0 Copyright (c) Steve Scherf et al.
# Submitted via: audiograbber 1.83.01
#
DISCID=c60e4d0f
DTITLE=Várior - MM6155
DYEAR=1900
DGENRE=Karaoke
TTITLE0=Stevie Ray Vaughan - Lookin´ Out My Window
TTITLE1=Stevie Ray Vaughan - Look At Little Sister
TTITLE2=Robert Cray - Moan
TTITLE3=Robert Cray - Smoking Gun
TTITLE4=Robert Cray - I Guess I Showed Her
TTITLE5=Robert Cray - More Than I Can Stand
TTITLE6=Joe Louis Walker - Blues Of The Month Club
TTITLE7=The Fabulous Thunderbirds - Amnesia
TTITLE8=John Lee Hooker - Mr. Lucky
TTITLE9=Freddy King - Messin´ With The Kid
TTITLE10=Mudy Waters - Mannish Boy
TTITLE11=Etta James - Feel Like Breakin´Up Somebody´s Home
TTITLE12=Etta James - Damm Your Eyes
TTITLE13=Aretha Franklin - Dr. Feel good
TTITLE14=Jimmy Reed - Bright Lights, Big City
EXTD=
EXTT0=
EXTT1=
EXTT2=
EXTT3=
EXTT4=
EXTT5=
EXTT6=
EXTT7=
EXTT8=
EXTT9=
EXTT10=
EXTT11=
EXTT12=
EXTT13=
EXTT14=
PLAYORDER=
